<svg width="58" height="57" viewBox="0 0 58 57" fill="none" xmlns="http://www.w3.org/2000/svg">
<path fill-rule="evenodd" clip-rule="evenodd" d="M29.3418 0C13.6017 0 0.841797 12.7599 0.841797 28.5C0.841797 44.2401 13.6017 57 29.3418 57C45.0819 57 57.8418 44.2401 57.8418 28.5C57.8418 12.7599 45.0819 0 29.3418 0ZM18.5417 12.3496H41.0919C42.9936 12.3496 44.5418 13.8791 44.5418 15.7744V45.5996L40.9237 42.4409L38.8874 40.5789L36.7333 38.6005L37.6253 41.6761H18.5417C16.64 41.6761 15.0918 40.1466 15.0918 38.2514V15.7744C15.0918 13.8791 16.64 12.3496 18.5417 12.3496Z" fill="#5865F2"/>
<path fill-rule="evenodd" clip-rule="evenodd" d="M34.5956 34.0628C34.5956 34.0628 33.9898 33.3479 33.4849 32.7162C35.6894 32.101 36.5309 30.7378 36.5309 30.7378C35.8409 31.1867 35.1846 31.5025 34.5956 31.7187C33.7542 32.0678 32.9464 32.3005 32.1554 32.4335C30.5399 32.7328 29.059 32.6497 27.7968 32.4169C26.8376 32.234 26.013 31.968 25.323 31.702C24.936 31.5524 24.5153 31.3695 24.0946 31.1368C24.0693 31.1202 24.0441 31.1077 24.0188 31.0952C23.9936 31.0828 23.9683 31.0703 23.9431 31.0537C23.9094 31.037 23.8926 31.0204 23.8758 31.0038C23.5729 30.8375 23.4046 30.7212 23.4046 30.7212C23.4046 30.7212 24.2124 32.0512 26.3496 32.6829C25.8447 33.3147 25.2221 34.0628 25.2221 34.0628C21.503 33.9464 20.0894 31.5358 20.0894 31.5358C20.0894 26.1825 22.5127 21.8434 22.5127 21.8434C24.936 20.0479 27.2415 20.0978 27.2415 20.0978L27.4098 20.2973C24.3806 21.1618 22.9839 22.4752 22.9839 22.4752C22.9839 22.4752 23.3541 22.2757 23.9768 21.993C25.7774 21.2117 27.2078 20.9955 27.7968 20.9457L27.8346 20.9394C27.9195 20.9251 27.9948 20.9124 28.0829 20.9124C29.1095 20.7794 30.2706 20.7462 31.4823 20.8792C33.081 21.062 34.7975 21.5275 36.5477 22.4752C36.5477 22.4752 35.2182 21.2283 32.3574 20.3638L32.593 20.0978C32.593 20.0978 34.8985 20.0479 37.3218 21.8434C37.3218 21.8434 39.7451 26.1825 39.7451 31.5358C39.7451 31.5358 38.3147 33.9464 34.5956 34.0628ZM27.244 26.6016C26.2923 26.6016 25.541 27.4574 25.541 28.5016C25.541 29.5457 26.309 30.4016 27.244 30.4016C28.1957 30.4016 28.947 29.5457 28.947 28.5016C28.9637 27.4574 28.1957 26.6016 27.244 26.6016ZM31.6357 28.5016C31.6357 27.4574 32.3871 26.6016 33.3387 26.6016C34.2904 26.6016 35.0417 27.4574 35.0417 28.5016C35.0417 29.5457 34.2904 30.4016 33.3387 30.4016C32.4038 30.4016 31.6357 29.5457 31.6357 28.5016Z" fill="#5865F2"/>
</svg>
