<svg id="Layer_1" data-name="Layer 1" xmlns="http://www.w3.org/2000/svg" viewBox="0 0 427 138"><path d="M109.89,30.36,71.58,8.23a19.14,19.14,0,0,0-19.09,0L14.18,30.36A19.06,19.06,0,0,0,4.64,46.87V91.13a19.06,19.06,0,0,0,9.54,16.51l38.31,22.13a19.14,19.14,0,0,0,19.09,0l38.31-22.13a19,19,0,0,0,9.54-16.51V46.87A19,19,0,0,0,109.89,30.36ZM59,100.1c0,5.37-4.1,8.87-10.46,5.88A254.06,254.06,0,0,1,25.59,94.05,1.75,1.75,0,0,0,23,95.49L22.89,99a3.47,3.47,0,0,1-5.2,2.85,9.48,9.48,0,0,1-3.55-3.56,9.62,9.62,0,0,1-1.3-4.85V84.69A7,7,0,0,1,23.2,78.47l17.26,9.19a3.88,3.88,0,0,0,1.61.38c1.63,0,2.79-1.3,2.79-3.43a8.48,8.48,0,0,0-4.4-7.11l-19.89-10c-6.71-3.57-5.68-9.6-5.68-9.6a5.41,5.41,0,0,1,8-4.78L56.1,70.25A5.42,5.42,0,0,1,59,75Zm7.38-40.46-.74.4a5.44,5.44,0,0,1-5.08,0L29,43.26a5.41,5.41,0,0,1-.16-9.45L46.42,23.69a3.42,3.42,0,0,1,3.47,0L75.62,38.26c2.2,1.22,4.85,1,5.91-.35A2,2,0,0,0,82,36.64a4.55,4.55,0,0,0-2.51-3.5L60.19,21.49a3.44,3.44,0,0,1,.17-5.85,5.44,5.44,0,0,1,5.41,0L97.24,33.81a5.41,5.41,0,0,1-.16,9.45L81.84,51.38a3.45,3.45,0,0,1-3.3,0L50,34.94c-2.24-1.16-5.13-.75-6.47.84a2.6,2.6,0,0,0-.68,1.73,3.9,3.9,0,0,0,2.3,3.22L66.5,53.67A3.43,3.43,0,0,1,66.34,59.64Zm17,24.18a4.35,4.35,0,0,0,1.77-.43l20.92-11.23a3.5,3.5,0,1,1,3.28,6.19L85.91,90.61a7.44,7.44,0,0,0-4.19,6.1,2.38,2.38,0,0,0,2.4,2.67,4.39,4.39,0,0,0,1.79-.44l20.66-11.1a3.16,3.16,0,0,1,4.66,2.79v1.73a5.15,5.15,0,0,1-2.57,4.46L78,114.55a5.14,5.14,0,0,1-7.71-4.47V72.48A5.17,5.17,0,0,1,73,67.93l30.7-16.35a5.15,5.15,0,0,1,7.57,4.55A8.69,8.69,0,0,1,110,60.66a8.84,8.84,0,0,1-3.42,3.22L85.16,75.06A7.43,7.43,0,0,0,81,81.16,2.37,2.37,0,0,0,83.39,83.82Z"/><path d="M152.52,28.63c10.72,0,15,4.58,15,14.45s-4.33,14.45-15,14.45h-2.89a1.63,1.63,0,0,0-1.81,1.81V69a1.59,1.59,0,0,1-1.8,1.81h-6.75a1.64,1.64,0,0,1-1.8-1.81V30.5a1.66,1.66,0,0,1,1.8-1.87Zm.36,18.55c2.89,0,4.34-.36,4.34-4.1S155.77,39,152.88,39h-3.25a1.62,1.62,0,0,0-1.81,1.8v4.58a1.66,1.66,0,0,0,1.81,1.81Z"/><path d="M197.8,60.42a1.6,1.6,0,0,1,1.8,1.81V69a1.59,1.59,0,0,1-1.8,1.81H172.15A1.65,1.65,0,0,1,170.34,69V63.8C170.34,50,188,46,189,41.28c.36-1.81-.61-3.38-2.95-3.38-2.83,0-4.22,1.57-4.64,4-.18,1.2-.78,1.74-2,1.5l-6.86-1.5A1.77,1.77,0,0,1,171,40c.36-4.33,2.65-12.4,15.06-12.4,13.48,0,14,10.66,13.9,12.46,0,11.8-15.77,13.67-17.88,19.75-.12.42.06.66.54.66Z"/><path d="M232.71,28.63a1.6,1.6,0,0,1,1.81,1.81v6.74A1.62,1.62,0,0,1,232.71,39H218.14a1.62,1.62,0,0,0-1.8,1.8v1.93a1.64,1.64,0,0,0,1.8,1.81h9.34a1.59,1.59,0,0,1,1.8,1.8v6.75a1.62,1.62,0,0,1-1.8,1.8h-9.34a1.62,1.62,0,0,0-1.8,1.81v1.93a1.64,1.64,0,0,0,1.8,1.8h14.57a1.6,1.6,0,0,1,1.81,1.81V69a1.6,1.6,0,0,1-1.81,1.81H207.43A1.65,1.65,0,0,1,205.62,69V30.44a1.62,1.62,0,0,1,1.81-1.81Z"/><path d="M166.67,118.07c0,1.33-.6,2.05-1.81,2.05h-6.74a1.63,1.63,0,0,1-1.81-1.81v-5.23a1.59,1.59,0,0,0-1.8-1.81h-5.18a1.63,1.63,0,0,0-1.81,1.81v5.23a1.59,1.59,0,0,1-1.8,1.81H139c-1.14,0-1.8-.72-1.8-2.05V92.54c0-7.58,1.2-15.65,14.75-15.65S166.67,85,166.67,92.54ZM156.31,92.54c0-2.89-.42-4.33-4.39-4.33s-4.4,1.44-4.4,4.33v6.57a1.65,1.65,0,0,0,1.81,1.8h5.18a1.66,1.66,0,0,0,1.8-1.86Z"/><path d="M183,78a2.07,2.07,0,0,1,2.11,1.39l8.19,20c.24.54.72.42.72-.18V79.78A1.63,1.63,0,0,1,195.87,78h6.74a1.6,1.6,0,0,1,1.81,1.81v38.53a1.62,1.62,0,0,1-1.81,1.81h-8.85a2.08,2.08,0,0,1-2.11-1.38l-8.18-20c-.25-.55-.73-.43-.73.18v19.44a1.62,1.62,0,0,1-1.8,1.81h-6.75a1.64,1.64,0,0,1-1.8-1.81V79.78a1.62,1.62,0,0,1,1.8-1.81Z"/><path d="M239.64,118.07c0,1.33-.6,2.05-1.81,2.05h-6.74a1.62,1.62,0,0,1-1.81-1.81v-5.23a1.59,1.59,0,0,0-1.8-1.81H222.3a1.62,1.62,0,0,0-1.81,1.81v5.23a1.6,1.6,0,0,1-1.81,1.81h-6.74c-1.14,0-1.81-.72-1.81-2.05V92.54c0-7.58,1.21-15.65,14.76-15.65S239.64,85,239.64,92.54ZM229.28,92.54c0-2.89-.42-4.33-4.39-4.33s-4.4,1.44-4.4,4.33v6.57a1.64,1.64,0,0,0,1.81,1.8h5.18a1.66,1.66,0,0,0,1.8-1.86Z"/><path d="M253.9,78a1.6,1.6,0,0,1,1.81,1.81V108a1.64,1.64,0,0,0,1.81,1.8h13.42a1.6,1.6,0,0,1,1.81,1.81v6.74a1.6,1.6,0,0,1-1.81,1.81H247.16a1.65,1.65,0,0,1-1.81-1.81V79.78A1.63,1.63,0,0,1,247.16,78Z"/><path d="M278.05,78a2,2,0,0,1,2,1.39l4.46,11.2c.24.54.6.54.84,0l4.46-11.2a2,2,0,0,1,2-1.39h8.61c1.38,0,2,.85,1.38,2.11l-10.78,24.09a1.52,1.52,0,0,0-.12.72v13.42a1.62,1.62,0,0,1-1.8,1.81h-8.43a1.65,1.65,0,0,1-1.81-1.81V104.89a1.52,1.52,0,0,0-.12-.72L268,80.08c-.6-1.26,0-2.11,1.39-2.11Z"/><path d="M316.28,90.14a1.6,1.6,0,0,0-1.81-1.81H306a1.64,1.64,0,0,1-1.8-1.81V79.78A1.62,1.62,0,0,1,306,78h30.83a1.61,1.61,0,0,1,1.81,1.81v6.74a1.63,1.63,0,0,1-1.81,1.81h-8.43a1.63,1.63,0,0,0-1.81,1.81v28.17a1.62,1.62,0,0,1-1.8,1.81h-6.75a1.64,1.64,0,0,1-1.8-1.81Z"/><path d="M350.72,78a1.6,1.6,0,0,1,1.8,1.81v38.53a1.62,1.62,0,0,1-1.8,1.81h-6.63a1.64,1.64,0,0,1-1.8-1.81V79.78a1.62,1.62,0,0,1,1.8-1.81Z"/><path d="M357.94,91.52c0-4,.84-14.63,15.11-14.63,12.83,0,14.81,8.61,15.05,13.25a1.57,1.57,0,0,1-1.32,1.68l-6.68,1.51a2,2,0,0,1-2.41-1.87c-.3-2.65-1.39-4.21-4.64-4.21-4.45,0-4.76,2.83-4.76,7.46v8.67c0,4.64.31,7.47,4.76,7.47,3.31,0,4.22-1.57,4.58-4.34a1.88,1.88,0,0,1,2.35-1.74l6.8,1.5A1.61,1.61,0,0,1,388.1,108c-.24,4.57-2.22,13.19-15.05,13.19-14.27,0-15.11-10.66-15.11-14.64Z"/><path d="M413.27,92.91c-1.21.24-1.81-.31-2-1.51-.42-2.47-2.41-4-5.24-4-2.34,0-3.79,1.38-3.55,2.77.84,4.69,19.87,4.57,19.87,18.42,0,1.81-2.05,12.46-16.32,12.46-12.64,0-15.35-8.3-15.65-13a1.77,1.77,0,0,1,1.56-2l6.81-1.5c1.2-.24,1.86.3,2,1.56.25,2.89,2.47,4.58,5.3,4.58s5.12-1.75,4.76-3.37c-1.14-5.12-19.27-4-19.27-17.83-.06-1.8,1-12.46,14.51-12.46,12.41,0,15.3,8.07,15.66,12.4a1.77,1.77,0,0,1-1.57,2Z"/></svg>