<svg width="21" height="14" viewBox="0 0 21 14" fill="none" xmlns="http://www.w3.org/2000/svg">
<path d="M13.75 7C13.75 8.65685 12.4069 10 10.75 10C9.09315 10 7.75 8.65685 7.75 7C7.75 5.34315 9.09315 4 10.75 4C12.4069 4 13.75 5.34315 13.75 7Z" fill="#0D0D0D"/>
<path d="M20.6444 6.55279C18.4862 2.23635 14.6531 0 10.75 0C6.84687 0 3.01379 2.23635 0.855573 6.55279C0.714809 6.83431 0.714809 7.16569 0.855573 7.44721C3.01379 11.7637 6.84687 14 10.75 14C14.6531 14 18.4862 11.7637 20.6444 7.44721C20.7852 7.16569 20.7852 6.83431 20.6444 6.55279ZM10.75 12C7.78121 12 4.74806 10.3792 2.87966 7C4.74806 3.62078 7.78121 2 10.75 2C13.7188 2 16.7519 3.62078 18.6203 7C16.7519 10.3792 13.7188 12 10.75 12Z" fill="#0D0D0D"/>
</svg>
