<?xml version="1.0" encoding="UTF-8"?><svg id="a" xmlns="http://www.w3.org/2000/svg" xmlns:xlink="http://www.w3.org/1999/xlink" viewBox="0 0 427 138"><defs><style>.c{fill:#fff;}.d{fill:url(#b);}</style><linearGradient id="b" x1="33.34" y1="21.29" x2="90.74" y2="120.71" gradientTransform="translate(0 140) scale(1 -1)" gradientUnits="userSpaceOnUse"><stop offset="0" stop-color="#006cfa"/><stop offset=".1" stop-color="#0b68f4"/><stop offset=".27" stop-color="#285ee6"/><stop offset=".49" stop-color="#574ecd"/><stop offset=".75" stop-color="#9838ac"/><stop offset="1" stop-color="#db218a"/></linearGradient></defs><path class="d" d="M109.89,30.36L71.58,8.23c-5.91-3.4-13.18-3.4-19.09,0L14.18,30.36c-5.9,3.4-9.54,9.7-9.54,16.51v44.26c0,6.81,3.64,13.11,9.54,16.51l38.31,22.13c5.91,3.4,13.18,3.4,19.09,0l38.31-22.13c5.91-3.39,9.55-9.69,9.54-16.51V46.87c.01-6.82-3.63-13.12-9.54-16.51ZM59,100.1c0,5.37-4.1,8.87-10.46,5.88-7.85-3.58-15.51-7.57-22.95-11.93-.85-.47-1.91-.16-2.38,.69-.13,.23-.2,.49-.21,.75l-.11,3.51c-.09,1.91-1.71,3.4-3.62,3.31-.56-.02-1.1-.18-1.58-.46-1.48-.85-2.71-2.08-3.55-3.56-.86-1.47-1.3-3.15-1.3-4.85v-8.75c-.04-3.87,3.05-7.04,6.92-7.08,1.2-.01,2.39,.28,3.44,.86l17.26,9.19c.5,.24,1.05,.37,1.61,.38,1.63,0,2.79-1.3,2.79-3.43-.12-2.98-1.79-5.68-4.4-7.11l-19.89-10c-6.71-3.57-5.68-9.6-5.68-9.6-.02-2.99,2.39-5.42,5.38-5.44,.92,0,1.82,.22,2.62,.66l33.21,17.13c1.77,.93,2.88,2.75,2.9,4.75v25.1Zm7.38-40.46l-.74,.4c-1.59,.84-3.49,.84-5.08,0l-31.56-16.78c-2.63-1.41-3.63-4.69-2.22-7.32,.47-.89,1.19-1.62,2.06-2.13l17.58-10.12c1.07-.63,2.4-.63,3.47,0l25.73,14.57c2.2,1.22,4.85,1,5.91-.35,.3-.36,.47-.8,.47-1.27-.2-1.51-1.14-2.83-2.51-3.5l-19.3-11.65c-1.59-1.05-2.03-3.18-.98-4.77,.29-.45,.69-.82,1.15-1.08,1.68-.96,3.73-.96,5.41,0l31.47,18.17c2.58,1.5,3.47,4.81,1.97,7.39-.5,.87-1.24,1.58-2.13,2.06l-15.24,8.12c-1.03,.56-2.27,.56-3.3,0l-28.54-16.44c-2.24-1.16-5.13-.75-6.47,.84-.43,.47-.67,1.09-.68,1.73,.12,1.41,1.01,2.64,2.3,3.22l21.35,12.94c1.62,.98,2.15,3.08,1.17,4.71-.32,.53-.78,.97-1.33,1.26h.04Zm17,24.18c.61-.02,1.22-.16,1.77-.43l20.92-11.23c1.71-.91,3.83-.25,4.74,1.46s.25,3.83-1.46,4.74h0l-23.44,12.26c-2.38,1.15-3.98,3.47-4.19,6.1-.16,1.3,.77,2.49,2.07,2.65,.11,.01,.22,.02,.33,.02,.62-.02,1.23-.17,1.79-.44l20.66-11.1c1.54-.83,3.45-.25,4.28,1.28,.25,.46,.38,.98,.38,1.51v1.73c0,1.84-.98,3.54-2.57,4.46l-30.66,17.73c-2.46,1.42-5.6,.58-7.02-1.88-.45-.79-.69-1.68-.69-2.59v-37.6c0-1.9,1.04-3.65,2.71-4.55l30.7-16.35c2.51-1.34,5.63-.38,6.97,2.13,.4,.75,.6,1.58,.6,2.42,0,1.6-.44,3.17-1.27,4.53-.83,1.36-2.01,2.47-3.42,3.22l-21.42,11.18c-2.37,1.15-3.95,3.47-4.16,6.1-.16,1.3,.76,2.48,2.06,2.64,.11,.01,.22,.02,.33,.02h-.01Z"/><path class="c" d="M152.52,28.63c10.72,0,15,4.58,15,14.45s-4.33,14.45-15,14.45h-2.89c-.89-.11-1.7,.53-1.81,1.43-.02,.13-.02,.26,0,.38v9.66c.13,.87-.47,1.68-1.34,1.81-.15,.02-.31,.02-.46,0h-6.75c-.9,.09-1.71-.56-1.8-1.46-.01-.12-.01-.23,0-.35V30.5c-.12-.91,.52-1.74,1.43-1.86,.12-.02,.25-.02,.37,0h13.25Zm.36,18.55c2.89,0,4.34-.36,4.34-4.1s-1.45-4.08-4.34-4.08h-3.25c-.89-.11-1.7,.52-1.81,1.41-.02,.13-.02,.26,0,.39v4.58c-.09,.91,.58,1.72,1.5,1.81,.1,0,.21,0,.31,0h3.25Z"/><path class="c" d="M197.8,60.42c.88-.12,1.68,.49,1.8,1.37,.02,.15,.02,.29,0,.44v6.77c.13,.87-.47,1.68-1.34,1.81-.15,.02-.31,.02-.46,0h-25.65c-.91,.09-1.72-.57-1.81-1.47-.01-.11-.01-.23,0-.34v-5.2c0-13.8,17.66-17.8,18.66-22.52,.36-1.81-.61-3.38-2.95-3.38-2.83,0-4.22,1.57-4.64,4-.18,1.2-.78,1.74-2,1.5l-6.86-1.5c-.94-.11-1.63-.95-1.55-1.9,.36-4.33,2.65-12.4,15.06-12.4,13.48,0,14,10.66,13.9,12.46,0,11.8-15.77,13.67-17.88,19.75-.12,.42,.06,.66,.54,.66l15.18-.05Z"/><path class="c" d="M232.71,28.63c.87-.12,1.69,.48,1.81,1.36,.02,.15,.02,.3,0,.45v6.74c.12,.89-.51,1.7-1.39,1.82-.14,.02-.28,.02-.42,0h-14.57c-.89-.11-1.69,.53-1.8,1.42-.02,.13-.02,.26,0,.38v1.93c-.1,.9,.55,1.71,1.45,1.81,.12,.01,.23,.01,.35,0h9.34c.87-.12,1.68,.48,1.8,1.35,.02,.15,.02,.3,0,.45v6.75c.11,.89-.53,1.69-1.42,1.8-.13,.02-.26,.02-.38,0h-9.34c-.89-.11-1.69,.53-1.8,1.42-.02,.13-.02,.26,0,.39v1.93c-.09,.9,.56,1.71,1.46,1.8,.11,.01,.23,.01,.34,0h14.57c.87-.12,1.69,.48,1.81,1.36,.02,.15,.02,.3,0,.45v6.76c.12,.87-.48,1.69-1.36,1.81-.15,.02-.3,.02-.45,0h-25.28c-.91,.09-1.72-.57-1.81-1.47-.01-.11-.01-.23,0-.34V30.44c-.11-.89,.52-1.7,1.4-1.81,.13-.02,.27-.02,.41,0h25.28Z"/><path class="c" d="M166.67,118.07c0,1.33-.6,2.05-1.81,2.05h-6.74c-.89,.11-1.7-.53-1.81-1.43-.02-.13-.02-.26,0-.38v-5.23c.13-.87-.47-1.68-1.34-1.81-.15-.02-.31-.02-.46,0h-5.18c-.89-.11-1.7,.53-1.81,1.43-.02,.13-.02,.26,0,.38v5.23c.13,.87-.47,1.68-1.34,1.81-.15,.02-.31,.02-.46,0h-6.72c-1.14,0-1.8-.72-1.8-2.05v-25.53c0-7.58,1.2-15.65,14.75-15.65s14.72,8.11,14.72,15.65v25.53Zm-10.36-25.53c0-2.89-.42-4.33-4.39-4.33s-4.4,1.44-4.4,4.33v6.57c-.09,.91,.58,1.71,1.48,1.8,.11,.01,.22,.01,.33,0h5.18c.91,.08,1.72-.59,1.81-1.5,.01-.12,0-.24,0-.36v-6.51Z"/><path class="c" d="M183,78c.94-.07,1.8,.5,2.11,1.39l8.19,20c.24,.54,.72,.42,.72-.18v-19.43c-.09-.9,.56-1.7,1.46-1.79,.13-.01,.26-.01,.39,0h6.74c.87-.12,1.69,.48,1.81,1.36,.02,.15,.02,.3,0,.45v38.53c.11,.89-.52,1.7-1.4,1.81-.13,.02-.27,.02-.41,0h-8.85c-.93,.07-1.8-.5-2.11-1.38l-8.18-20c-.25-.55-.73-.43-.73,.18v19.44c.11,.89-.52,1.7-1.41,1.81-.13,.02-.26,.02-.39,0h-6.75c-.9,.09-1.71-.56-1.8-1.46-.01-.12-.01-.23,0-.35v-38.61c-.11-.89,.52-1.7,1.41-1.81,.13-.02,.26-.02,.39,0l8.81,.03Z"/><path class="c" d="M239.64,118.07c0,1.33-.6,2.05-1.81,2.05h-6.74c-.89,.11-1.7-.52-1.81-1.4-.02-.13-.02-.27,0-.41v-5.23c.13-.87-.47-1.68-1.34-1.81-.15-.02-.31-.02-.46,0h-5.18c-.89-.11-1.7,.52-1.81,1.4-.02,.13-.02,.27,0,.41v5.23c.12,.87-.48,1.69-1.36,1.81-.15,.02-.3,.02-.45,0h-6.74c-1.14,0-1.81-.72-1.81-2.05v-25.53c0-7.58,1.21-15.65,14.76-15.65s14.75,8.11,14.75,15.65v25.53Zm-10.36-25.53c0-2.89-.42-4.33-4.39-4.33s-4.4,1.44-4.4,4.33v6.57c-.09,.9,.56,1.71,1.46,1.8,.12,.01,.23,.01,.35,0h5.18c.91,.08,1.72-.59,1.81-1.5,.01-.12,0-.24,0-.36v-6.51Z"/><path class="c" d="M253.9,78c.87-.12,1.69,.48,1.81,1.36,.02,.15,.02,.3,0,.45v28.19c-.09,.9,.56,1.71,1.46,1.8,.12,.01,.23,.01,.35,0h13.42c.87-.12,1.69,.48,1.81,1.36,.02,.15,.02,.3,0,.45v6.74c.12,.87-.48,1.69-1.36,1.81-.15,.02-.3,.02-.45,0h-23.78c-.91,.09-1.72-.57-1.81-1.47-.01-.11-.01-.23,0-.34v-38.57c-.09-.9,.57-1.69,1.46-1.78,.12-.01,.23-.01,.35,0h6.74Z"/><path class="c" d="M278.05,78c.9-.04,1.72,.53,2,1.39l4.46,11.2c.24,.54,.6,.54,.84,0l4.46-11.2c.28-.86,1.1-1.43,2-1.39h8.61c1.38,0,2,.85,1.38,2.11l-10.78,24.09c-.1,.23-.14,.47-.12,.72v13.42c.11,.89-.52,1.7-1.41,1.81-.13,.02-.26,.02-.39,0h-8.43c-.91,.09-1.72-.57-1.81-1.47-.01-.11-.01-.23,0-.34v-13.45c.02-.25-.02-.49-.12-.72l-10.74-24.09c-.6-1.26,0-2.11,1.39-2.11l8.66,.03Z"/><path class="c" d="M316.28,90.14c.12-.87-.48-1.69-1.36-1.81-.15-.02-.3-.02-.45,0h-8.47c-.9,.09-1.71-.56-1.8-1.46-.01-.12-.01-.23,0-.35v-6.74c-.09-.89,.55-1.69,1.44-1.78,.12-.01,.24-.01,.36,0h30.83c.88-.12,1.69,.5,1.81,1.38,.02,.14,.02,.29,0,.43v6.74c.11,.89-.53,1.7-1.43,1.81-.13,.02-.26,.02-.38,0h-8.43c-.89-.11-1.7,.53-1.81,1.43-.02,.13-.02,.26,0,.38v28.17c.11,.89-.52,1.7-1.41,1.81-.13,.02-.26,.02-.39,0h-6.75c-.9,.09-1.71-.56-1.8-1.46-.01-.12-.01-.23,0-.35l.04-28.2Z"/><path class="c" d="M350.72,78c.88-.12,1.68,.49,1.8,1.37,.02,.15,.02,.29,0,.44v38.53c.11,.89-.52,1.7-1.41,1.81-.13,.02-.26,.02-.39,0h-6.63c-.9,.09-1.71-.56-1.8-1.46-.01-.12-.01-.23,0-.35v-38.56c-.11-.89,.52-1.7,1.41-1.81,.13-.02,.26-.02,.39,0l6.63,.03Z"/><path class="c" d="M357.94,91.52c0-4,.84-14.63,15.11-14.63,12.83,0,14.81,8.61,15.05,13.25,.07,.82-.51,1.55-1.32,1.68l-6.68,1.51c-1.08,.23-2.14-.46-2.37-1.55-.02-.11-.04-.22-.04-.32-.3-2.65-1.39-4.21-4.64-4.21-4.45,0-4.76,2.83-4.76,7.46v8.67c0,4.64,.31,7.47,4.76,7.47,3.31,0,4.22-1.57,4.58-4.34,.04-1.04,.92-1.84,1.96-1.8,.13,0,.26,.03,.39,.06l6.8,1.5c.82,.15,1.4,.9,1.32,1.73-.24,4.57-2.22,13.19-15.05,13.19-14.27,0-15.11-10.66-15.11-14.64v-15.03Z"/><path class="c" d="M413.27,92.91c-1.21,.24-1.81-.31-2-1.51-.42-2.47-2.41-4-5.24-4-2.34,0-3.79,1.38-3.55,2.77,.84,4.69,19.87,4.57,19.87,18.42,0,1.81-2.05,12.46-16.32,12.46-12.64,0-15.35-8.3-15.65-13-.13-.97,.54-1.86,1.51-1.99h.05l6.81-1.51c1.2-.24,1.86,.3,2,1.56,.25,2.89,2.47,4.58,5.3,4.58s5.12-1.75,4.76-3.37c-1.14-5.12-19.27-4-19.27-17.83-.06-1.8,1-12.46,14.51-12.46,12.41,0,15.3,8.07,15.66,12.4,.13,.97-.55,1.86-1.51,1.99h-.06l-6.87,1.49Z"/></svg>