<svg id="Layer_1" data-name="Layer 1" xmlns="http://www.w3.org/2000/svg" viewBox="0 0 137 138"><defs><style>.cls-1{fill:#fff;}</style></defs><path class="cls-1" d="M119.78,27.6,78.72,3.89a20.45,20.45,0,0,0-20.44,0L17.22,27.6A20.42,20.42,0,0,0,7,45.29V92.71A20.42,20.42,0,0,0,17.22,110.4l41.06,23.71a20.45,20.45,0,0,0,20.44,0l41.06-23.71A20.42,20.42,0,0,0,130,92.71V45.29A20.42,20.42,0,0,0,119.78,27.6ZM65.21,102.32c0,5.75-4.4,9.51-11.22,6.3A274.54,274.54,0,0,1,29.45,95.84a1.88,1.88,0,0,0-2.82,1.55l-.07,3.72a3.72,3.72,0,0,1-5.58,3,10.41,10.41,0,0,1-5.19-9V85.81a7.55,7.55,0,0,1,11.1-6.66L45.38,89a4.28,4.28,0,0,0,1.73.4c1.74,0,3-1.39,3-3.67a9.1,9.1,0,0,0-4.71-7.63L24.07,67.34C16.88,63.51,18,57.05,18,57.05a5.8,5.8,0,0,1,8.52-5.12L62.14,70.34a5.81,5.81,0,0,1,3.07,5.12ZM73.11,59l-.79.43a5.84,5.84,0,0,1-5.45,0l-33.72-18A5.79,5.79,0,0,1,33,31.3L51.76,20.45a3.71,3.71,0,0,1,3.73,0L83.05,36.06c2.36,1.31,5.2,1.11,6.34-.37a2.12,2.12,0,0,0,.47-1.36c0-1.26-1-2.72-2.69-3.76L66.52,18.1a3.69,3.69,0,0,1,.18-6.27,5.85,5.85,0,0,1,5.8,0L106.22,31.3a5.79,5.79,0,0,1-.17,10.12l-16.33,8.7a3.71,3.71,0,0,1-3.54,0L55.65,32.51c-2.4-1.24-5.5-.81-6.94.9A2.77,2.77,0,0,0,48,35.26a4.16,4.16,0,0,0,2.46,3.45L73.28,52.57A3.67,3.67,0,0,1,73.11,59ZM91.38,84.88a4.69,4.69,0,0,0,1.9-.46l22.41-12A3.76,3.76,0,1,1,119.2,79L94.08,92.15a8,8,0,0,0-4.49,6.55,2.54,2.54,0,0,0,2.58,2.85,4.69,4.69,0,0,0,1.91-.47l22.14-11.89a3.38,3.38,0,0,1,5,3V94a5.51,5.51,0,0,1-2.75,4.78l-32.9,19A5.52,5.52,0,0,1,77.29,113V72.73a5.51,5.51,0,0,1,2.92-4.87L113.1,50.33a5.52,5.52,0,0,1,8.11,4.88,9.28,9.28,0,0,1-1.36,4.85,9.38,9.38,0,0,1-3.67,3.45l-22.9,12A8,8,0,0,0,88.79,82,2.55,2.55,0,0,0,91.38,84.88Z"/></svg>