<svg width="21" height="20" viewBox="0 0 21 20" fill="none" xmlns="http://www.w3.org/2000/svg">
<path d="M8.75 2C6.54086 2 4.75 3.79086 4.75 6C4.75 8.20914 6.54086 10 8.75 10C10.9591 10 12.75 8.20914 12.75 6C12.75 3.79086 10.9591 2 8.75 2ZM2.75 6C2.75 2.68629 5.43629 0 8.75 0C12.0637 0 14.75 2.68629 14.75 6C14.75 9.31371 12.0637 12 8.75 12C5.43629 12 2.75 9.31371 2.75 6ZM15.5784 1.75736C15.969 1.36683 16.6021 1.36683 16.9926 1.75736C19.3358 4.1005 19.3358 7.8995 16.9926 10.2426C16.6021 10.6332 15.969 10.6332 15.5784 10.2426C15.1879 9.85212 15.1879 9.21895 15.5784 8.82843C17.1405 7.26633 17.1405 4.73367 15.5784 3.17157C15.1879 2.78105 15.1879 2.14788 15.5784 1.75736ZM16.2799 14.7575C16.4138 14.2217 16.9567 13.8959 17.4925 14.0299C18.8205 14.3618 19.661 15.2109 20.1444 16.1778C20.6122 17.1133 20.75 18.1571 20.75 19C20.75 19.5523 20.3023 20 19.75 20C19.1977 20 18.75 19.5523 18.75 19C18.75 18.3429 18.6378 17.6367 18.3556 17.0722C18.089 16.5391 17.6795 16.1382 17.0075 15.9701C16.4717 15.8362 16.1459 15.2933 16.2799 14.7575ZM5.25 16C3.99054 16 2.75 17.2135 2.75 19C2.75 19.5523 2.30228 20 1.75 20C1.19772 20 0.75 19.5523 0.75 19C0.75 16.3682 2.64347 14 5.25 14H12.25C14.8565 14 16.75 16.3682 16.75 19C16.75 19.5523 16.3023 20 15.75 20C15.1977 20 14.75 19.5523 14.75 19C14.75 17.2135 13.5095 16 12.25 16H5.25Z" fill="#0D0D0D"/>
</svg>
