<svg width="58" height="57" viewBox="0 0 58 57" fill="none" xmlns="http://www.w3.org/2000/svg">
<path fill-rule="evenodd" clip-rule="evenodd" d="M29.3418 0C13.6017 0 0.841797 12.7599 0.841797 28.5C0.841797 44.2401 13.6017 57 29.3418 57C45.0819 57 57.8418 44.2401 57.8418 28.5C57.8418 12.7599 45.0819 0 29.3418 0ZM28.548 24.1509L28.4882 23.1648C28.3088 20.6088 29.8837 18.2742 32.3756 17.3685C33.2926 17.0465 34.8475 17.0063 35.8642 17.288C36.2629 17.4088 37.0205 17.8113 37.5587 18.1736L38.5355 18.8377L39.612 18.4956C40.2101 18.3144 41.0075 18.0126 41.3663 17.8113C41.7052 17.6302 42.0043 17.5295 42.0043 17.5899C42.0043 17.9321 41.2667 19.0994 40.6487 19.7434C39.8114 20.649 40.0506 20.7295 41.7451 20.1258C42.7618 19.7836 42.7817 19.7836 42.5824 20.166C42.4628 20.3673 41.8448 21.0717 41.1869 21.7157C40.0706 22.8226 40.0107 22.9434 40.0107 23.8692C40.0107 25.2981 39.333 28.2767 38.6552 29.9069C37.3992 32.966 34.708 36.1258 32.0167 37.7157C28.2291 39.9497 23.1855 40.5132 18.9393 39.205C17.5239 38.7623 15.0918 37.6352 15.0918 37.434C15.0918 37.3736 15.8294 37.2931 16.7265 37.273C18.6004 37.2327 20.4743 36.7094 22.0691 35.7836L23.1456 35.1396L21.9096 34.717C20.1553 34.1132 18.5805 32.7245 18.1817 31.4163C18.0621 30.9937 18.102 30.9736 19.2184 30.9736L20.3746 30.9534L19.3978 30.4906C18.2416 29.9069 17.185 28.9207 16.6667 27.9145C16.2879 27.1899 15.8095 25.3585 15.949 25.2176C15.9889 25.1572 16.4075 25.278 16.886 25.439C18.2615 25.9421 18.4409 25.8214 17.6435 24.9761C16.1484 23.4465 15.6899 21.1723 16.4075 19.0189L16.7464 18.0528L18.0621 19.361C20.7534 21.9975 23.9231 23.5673 27.5513 24.0302L28.548 24.1509Z" fill="#55ACEE"/>
</svg>
