<svg width="19" height="20" viewBox="0 0 19 20" fill="none" xmlns="http://www.w3.org/2000/svg">
<path d="M2.75 4C2.75 4.02553 2.76022 4.16958 3.04209 4.41948C3.32279 4.66834 3.78602 4.93815 4.44427 5.18499C5.7534 5.67591 7.62903 6 9.75 6C11.871 6 13.7466 5.67591 15.0557 5.18499C15.714 4.93815 16.1772 4.66834 16.4579 4.41948C16.7398 4.16958 16.75 4.02553 16.75 4C16.75 3.97447 16.7398 3.83042 16.4579 3.58052C16.1772 3.33166 15.714 3.06185 15.0557 2.81501C13.7466 2.32409 11.871 2 9.75 2C7.62903 2 5.7534 2.32409 4.44427 2.81501C3.78602 3.06185 3.32279 3.33166 3.04209 3.58052C2.76022 3.83042 2.75 3.97447 2.75 4ZM0.75 4C0.75 3.19711 1.18749 2.55194 1.71527 2.08401C2.24422 1.61504 2.95256 1.2384 3.74202 0.942351C5.32833 0.347486 7.45269 0 9.75 0C12.0473 0 14.1717 0.347486 15.758 0.942351C16.5474 1.2384 17.2558 1.61504 17.7847 2.08401C18.3125 2.55194 18.75 3.19711 18.75 4V8V12V16C18.75 16.8029 18.3125 17.4481 17.7847 17.916C17.2558 18.385 16.5474 18.7616 15.758 19.0576C14.1717 19.6525 12.0473 20 9.75 20C7.45269 20 5.32833 19.6525 3.74202 19.0576C2.95256 18.7616 2.24422 18.385 1.71527 17.916C1.18749 17.4481 0.75 16.8029 0.75 16V12V8V4ZM2.75 8C2.75 8.02553 2.76022 8.16958 3.04209 8.41948C3.32279 8.66834 3.78602 8.93815 4.44427 9.18499C5.7534 9.67591 7.62903 10 9.75 10C11.871 10 13.7466 9.67591 15.0557 9.18499C15.714 8.93815 16.1772 8.66834 16.4579 8.41948C16.7398 8.16958 16.75 8.02553 16.75 8V6.61619C16.4409 6.77981 16.1074 6.92662 15.758 7.05765C14.1717 7.65251 12.0473 8 9.75 8C7.45269 8 5.32833 7.65251 3.74202 7.05765C3.39262 6.92662 3.0591 6.77981 2.75 6.61619V8ZM2.75 10.6162V12C2.75 12.0255 2.76022 12.1696 3.04209 12.4195C3.32279 12.6683 3.78602 12.9381 4.44427 13.185C5.7534 13.6759 7.62903 14 9.75 14C11.871 14 13.7466 13.6759 15.0557 13.185C15.714 12.9381 16.1772 12.6683 16.4579 12.4195C16.7398 12.1696 16.75 12.0255 16.75 12V10.6162C16.4409 10.7798 16.1074 10.9266 15.758 11.0576C14.1717 11.6525 12.0473 12 9.75 12C7.45269 12 5.32833 11.6525 3.74202 11.0576C3.39262 10.9266 3.0591 10.7798 2.75 10.6162ZM2.75 14.6162V16C2.75 16.0255 2.76022 16.1696 3.04209 16.4195C3.32279 16.6683 3.78602 16.9381 4.44427 17.185C5.7534 17.6759 7.62903 18 9.75 18C11.871 18 13.7466 17.6759 15.0557 17.185C15.714 16.9381 16.1772 16.6683 16.4579 16.4195C16.7398 16.1696 16.75 16.0255 16.75 16V14.6162C16.4409 14.7798 16.1074 14.9266 15.758 15.0576C14.1717 15.6525 12.0473 16 9.75 16C7.45269 16 5.32833 15.6525 3.74202 15.0576C3.39262 14.9266 3.0591 14.7798 2.75 14.6162Z" fill="black"/>
</svg>
